<?xml version="1.0" encoding="utf-8"?>
<!-- Generator: Adobe Illustrator 28.1.0, SVG Export Plug-In . SVG Version: 6.00 Build 0)  -->
<svg version="1.1" id="Warstwa_1" xmlns="http://www.w3.org/2000/svg" xmlns:xlink="http://www.w3.org/1999/xlink" x="0px" y="0px"
	 viewBox="0 0 500.4 86.6" style="enable-background:new 0 0 500.4 86.6;" xml:space="preserve">
<style type="text/css">
	.st0{enable-background:new    ;}
	.st1{fill:#F1573A;}
	.st2{fill:none;stroke:#F1573A;stroke-width:9.1243;stroke-linecap:square;stroke-miterlimit:10;}
</style>
<g class="st0">
	<path class="st1" d="M93.5,29.8H113c5.4,0,9.6,1.5,12.4,4.3c2.4,2.4,3.6,5.7,3.6,9.7V44c0,6.9-3.7,11.2-9.1,13.2l10.4,15.2h-10.9
		l-9.1-13.6h-7.4v13.6h-9.4V29.8z M112.4,50.5c4.6,0,7.2-2.4,7.2-6v-0.1c0-4-2.8-6.1-7.4-6.1h-9.3v12.2H112.4z"/>
	<path class="st1" d="M134.4,56.3v-0.1c0-9.3,6.6-17,16.1-17c10.9,0,15.9,8.5,15.9,17.7c0,0.7-0.1,1.6-0.1,2.4h-22.7
		c0.9,4.2,3.8,6.4,8,6.4c3.1,0,5.4-1,7.9-3.3l5.3,4.7c-3,3.8-7.4,6.1-13.3,6.1C141.6,73.1,134.4,66.2,134.4,56.3z M157.3,53.5
		c-0.5-4.1-3-6.9-6.9-6.9c-3.8,0-6.3,2.7-7.1,6.9H157.3z"/>
	<path class="st1" d="M171.6,56.3v-0.1c0-9.3,6.6-17,16.1-17c10.9,0,15.9,8.5,15.9,17.7c0,0.7-0.1,1.6-0.1,2.4h-22.7
		c0.9,4.2,3.8,6.4,8,6.4c3.1,0,5.4-1,7.9-3.3L202,67c-3,3.8-7.4,6.1-13.3,6.1C178.9,73.1,171.6,66.2,171.6,56.3z M194.6,53.5
		c-0.5-4.1-3-6.9-6.9-6.9c-3.8,0-6.3,2.7-7.1,6.9H194.6z"/>
	<path class="st1" d="M212.1,47.7h-3.8v-7.6h3.8V38c0-3.6,0.9-6.2,2.6-7.9c1.7-1.7,4.2-2.6,7.5-2.6c2.9,0,4.9,0.4,6.6,0.9v7.7
		c-1.3-0.5-2.6-0.8-4.2-0.8c-2.1,0-3.3,1.1-3.3,3.5v1.3h7.5v7.5h-7.4v24.7h-9.2V47.7z"/>
	<path class="st1" d="M253,29.8h19.5c5.4,0,9.6,1.5,12.4,4.3c2.4,2.4,3.6,5.7,3.6,9.7V44c0,6.9-3.7,11.2-9.1,13.2l10.4,15.2h-10.9
		l-9.1-13.6h-7.4v13.6H253V29.8z M271.8,50.5c4.6,0,7.2-2.4,7.2-6v-0.1c0-4-2.8-6.1-7.4-6.1h-9.3v12.2H271.8z"/>
	<path class="st1" d="M293.8,56.3v-0.1c0-9.3,6.6-17,16.1-17c10.9,0,15.9,8.5,15.9,17.7c0,0.7-0.1,1.6-0.1,2.4H303
		c0.9,4.2,3.8,6.4,8,6.4c3.1,0,5.4-1,7.9-3.3l5.3,4.7c-3,3.8-7.4,6.1-13.3,6.1C301,73.1,293.8,66.2,293.8,56.3z M316.8,53.5
		c-0.5-4.1-3-6.9-6.9-6.9c-3.8,0-6.3,2.7-7.1,6.9H316.8z"/>
	<path class="st1" d="M334.2,47.7h-3.8v-7.6h3.8V38c0-3.6,0.9-6.2,2.6-7.9c1.7-1.7,4.2-2.6,7.5-2.6c2.9,0,4.9,0.4,6.6,0.9v7.7
		c-1.3-0.5-2.6-0.8-4.2-0.8c-2.1,0-3.3,1.1-3.3,3.5v1.3h7.5v7.5h-7.4v24.7h-9.2V47.7z"/>
	<path class="st1" d="M353.7,56.3v-0.1c0-9.3,6.6-17,16.1-17c10.9,0,15.9,8.5,15.9,17.7c0,0.7-0.1,1.6-0.1,2.4h-22.7
		c0.9,4.2,3.8,6.4,8,6.4c3.1,0,5.4-1,7.9-3.3l5.3,4.7c-3,3.8-7.4,6.1-13.3,6.1C360.9,73.1,353.7,66.2,353.7,56.3z M376.7,53.5
		c-0.5-4.1-3-6.9-6.9-6.9c-3.8,0-6.3,2.7-7.1,6.9H376.7z"/>
	<path class="st1" d="M392.6,39.8h9.2v6.6c1.9-4.5,4.9-7.4,10.4-7.2v9.7h-0.5c-6.1,0-9.9,3.7-9.9,11.5v12h-9.2V39.8z"/>
	<path class="st1" d="M418,39.8h9.2v6.6c1.9-4.5,4.9-7.4,10.4-7.2v9.7h-0.5c-6.1,0-9.9,3.7-9.9,11.5v12H418V39.8z"/>
	<path class="st1" d="M440,63v-0.1c0-7.1,5.4-10.4,13.1-10.4c3.3,0,5.7,0.5,8,1.3v-0.5c0-3.8-2.4-6-7-6c-3.5,0-6,0.7-9,1.8l-2.3-7.1
		c3.6-1.6,7.1-2.6,12.7-2.6c5,0,8.7,1.3,11,3.6c2.4,2.4,3.5,6,3.5,10.4v18.9H461v-3.5c-2.2,2.5-5.4,4.1-9.9,4.1
		C445,73,440,69.5,440,63z M461.2,60.9v-1.6c-1.6-0.7-3.6-1.2-5.9-1.2c-4,0-6.4,1.6-6.4,4.5v0.1c0,2.5,2.1,4,5,4
		C458.3,66.6,461.2,64.2,461.2,60.9z"/>
	<path class="st1" d="M478.3,28h9.2v44.4h-9.2V28z"/>
</g>
<g>
	<line class="st2" x1="46.7" y1="53.3" x2="44.5" y2="76.2"/>
	<path class="st2" d="M21.5,20.4c0,10.9,13,31.8,24.7,31.8"/>
	<path class="st2" d="M24.9,39.8c-4.6,2.9-11-1.2-14.3-9.3"/>
	<path class="st2" d="M40.7,25.8c-1,5.5-2.6,9.8-9.2,13.7"/>
	<path class="st2" d="M53,14.8c5.8,15.2,3,32-6.3,37.5"/>
	<path class="st2" d="M75,42c-5.7,5.7-11.9,6.1-18.9,3.9"/>
	<path class="st2" d="M67.9,14.8c0.2,9.1-4.2,16.7-9.7,16.8"/>
</g>
</svg>
